<svg xmlns="http://www.w3.org/2000/svg" viewBox="0 0 24 24" fill="black" width="48px" height="48px">
    <path d="M0 0h24v24H0z" fill="none"/>
    <path d="M12 2C6.48 2 2 6.48 2 12s4.48 10 10 10 10-4.48 10-10S17.52 2 12 2zm0 18c-4.41 0-8-3.59-8-8s3.59-8 8-8 8 3.59 8 8-3.59 8-8 8zm0-14.5c-1.31 0-2.37 1.16-2.37 2.5s1.06 2.5 2.37 2.5 2.37-1.16 2.37-2.5-1.06-2.5-2.37-2.5zM8.77 15.73c.26-.42.76-.73 1.36-.73h3.74c.59 0 1.1.32 1.36.73A6.014 6.014 0 0112 16c-.69 0-1.36-.12-1.98-.33-.14-.06-.31-.09-.49-.09-.17 0-.34.04-.49.1-.63.2-1.3.32-2.01.32-.69 0-1.36-.12-1.98-.33z"/>
</svg>

